<svg xmlns="http://www.w3.org/2000/svg" version="1.1" xmlns:xlink="http://www.w3.org/1999/xlink" xmlns:svgjs="http://svgjs.dev/svgjs" width="1500" height="937" viewBox="0 0 1500 937"><g transform="matrix(1,0,0,1,0,0)"><svg viewBox="0 0 512 320" data-background-color="#096a2e" preserveAspectRatio="xMidYMid meet" height="937" width="1500" xmlns="http://www.w3.org/2000/svg" xmlns:xlink="http://www.w3.org/1999/xlink"><g id="tight-bounds" transform="matrix(1,0,0,1,0,0)"><svg viewBox="0 0 512 320" height="320" width="512"><g><svg></svg></g><g><svg viewBox="0 0 512 320" height="320" width="512"><g><path transform="translate(256,160) scale(160,160)" d="M-1 0c0-0.552 0.448-1 1-1 0.552 0 1 0.448 1 1 0 0.552-0.448 1-1 1-0.552 0-1-0.448-1-1z" fill="#c9efc7" fill-rule="nonzero" stroke="none" stroke-width="1" stroke-linecap="butt" stroke-linejoin="miter" stroke-miterlimit="10" stroke-dasharray="" stroke-dashoffset="0" font-family="none" font-weight="none" font-size="none" text-anchor="none" style="mix-blend-mode: normal" data-fill-palette-color="tertiary"></path></g><g transform="matrix(1,0,0,1,116,20)"><svg viewBox="0 0 280 280" height="280" width="280"><g><svg viewBox="0 0 280 280" height="280" width="280"><g><svg viewBox="0 0 280 280" height="280" width="280"><g id="textblocktransform"><svg viewBox="0 0 280 280" height="280" width="280" id="textblock"><g><svg viewBox="0 0 280 280" height="280" width="280"><g transform="matrix(1,0,0,1,51.729503481879306,51.729503481879306)"><svg viewBox="0 0 176.5409930362414 176.5409930362414" height="176.5409930362414" width="176.5409930362414"><g id="icon-0"><circle r="88" cx="88.2704965181207" cy="88.2704965181207" fill="#8abe53" data-fill-palette-color="accent"></circle><svg xmlns="http://www.w3.org/2000/svg" xmlns:xlink="http://www.w3.org/1999/xlink" version="1.1" x="26.481148955436208" y="26.481148955436208" viewBox="0.002556668379362762 0 56.8478365446695 54.7" enable-background="new 0 0 56.85 54.7" xml:space="preserve" width="123.57869512536897" height="123.57869512536897" class="icon-xg-0" data-fill-palette-color="quaternary" id="xg-0"><path d="M48.71 46.74c8.34-8.1 10.54-20.73 5.35-30.73-0.37-0.71-0.47-1.44-0.29-2.06 0.11-0.37 0.31-0.85 0.67-1.03l0.93-0.46-0.5-0.91c-0.37-0.67-1.43-1.82-3.06-1.82-0.62 0-1.25 0.17-1.89 0.49-5.76-6.12-14.15-9.18-22.73-7.91-0.16-0.27-0.33-0.51-0.51-0.72-0.01-0.02-0.03-0.04-0.04-0.06-0.32-0.37-0.65-0.65-0.99-0.86 0 0-0.01 0-0.01-0.01-0.17-0.11-0.34-0.2-0.51-0.28-0.01-0.01-0.02-0.01-0.03-0.02-0.16-0.07-0.32-0.13-0.48-0.18-0.01 0-0.01 0-0.02-0.01C24.14 0.04 23.72 0 23.42 0c-0.14 0-0.25 0.01-0.34 0.02-0.06 0.01-0.13 0.01-0.17 0.02-0.01 0-0.02 0.01-0.04 0.01-0.18 0.01-0.36 0.04-0.53 0.08-0.1 0.02-0.18 0.06-0.28 0.09-0.08 0.03-0.17 0.06-0.25 0.1-0.1 0.05-0.19 0.1-0.29 0.16-0.07 0.05-0.14 0.1-0.2 0.15-0.09 0.07-0.17 0.13-0.25 0.21-0.01 0.01-0.02 0.02-0.03 0.03-0.05 0.05-0.1 0.12-0.14 0.18-0.12 0.14-0.24 0.3-0.35 0.48-0.07 0.11-0.14 0.23-0.2 0.35-0.06 0.11-0.1 0.24-0.15 0.36-0.04 0.11-0.09 0.21-0.12 0.32-0.04 0.12-0.08 0.25-0.12 0.38-0.06 0.2-0.11 0.39-0.15 0.58-0.02 0.09-0.04 0.18-0.05 0.27-0.06 0.32-0.1 0.63-0.13 0.9-2.51 1.22-4.77 2.84-6.74 4.76-0.6 0.53-1.17 1.09-1.73 1.68-0.06 0.06-0.12 0.13-0.18 0.2-0.35 0.38-0.68 0.76-1.01 1.16-0.07 0.09-0.16 0.17-0.23 0.26-0.07-0.01-0.13-0.01-0.19-0.02-0.31-0.03-0.61-0.06-0.9-0.08C8.4 12.6 8.18 12.6 7.95 12.59c-0.23-0.01-0.48-0.03-0.69-0.03-5.52 0-6.84 2.67-7.16 3.84-0.03 0.1-0.05 0.19-0.06 0.27C0 16.9-0.01 17.14 0.02 17.38c0.32 2.7 2.2 4.12 3.3 4.72 0.13 0.07 0.16 0.23 0.13 0.36-1.62 7.8 0.26 15.51 5.31 21.71 5.36 6.59 13.51 10.53 21.8 10.53 0 0 0 0 0 0 5.82 0 11.33-1.96 15.94-5.67C46.5 49.01 46.51 49 46.52 49c0.14-0.12 0.27-0.24 0.37-0.39C47.37 48.24 48.25 47.48 48.71 46.74zM44.96 44.89c0 0-0.01 0-0.01 0-3.29 0.11-5.57-0.66-6.9-2.31-1.97-2.45-1.21-6.13-1.2-6.16l0.02-0.21c0 0 0 0 0 0l0 0c0.02-2.29-0.55-4.04-1.68-5.18-1.08-1.09-2.62-1.62-4.72-1.62 0 0 0 0 0 0 0 0 0 0 0 0-0.99 0-1.95 0.11-2.79 0.21-0.45 0.05-0.87 0.1-1.23 0.12-0.07 0-0.15 0.01-0.22 0.02-0.05 0-0.09 0.01-0.11 0.02-3.31-0.69-4.08-3.36-4.23-4.12-0.02-0.11-0.03-0.18-0.03-0.19l-0.02-0.12c-0.14-0.6-0.31-1.16-0.48-1.71-0.06-0.18-0.12-0.34-0.18-0.52-0.12-0.35-0.25-0.7-0.39-1.03-0.08-0.19-0.16-0.37-0.24-0.55-0.13-0.3-0.27-0.58-0.41-0.86-0.09-0.17-0.17-0.34-0.26-0.5-0.15-0.27-0.3-0.52-0.45-0.77-0.09-0.14-0.18-0.29-0.27-0.43-0.17-0.27-0.35-0.52-0.53-0.76-0.07-0.1-0.15-0.21-0.22-0.3-0.26-0.33-0.52-0.64-0.78-0.93-0.04-0.05-0.09-0.09-0.13-0.13-0.22-0.24-0.44-0.47-0.67-0.68-0.09-0.09-0.19-0.17-0.28-0.25-0.17-0.16-0.35-0.31-0.52-0.45-0.1-0.08-0.2-0.16-0.3-0.24-0.16-0.13-0.33-0.25-0.49-0.36-0.1-0.07-0.19-0.14-0.29-0.2-0.17-0.11-0.33-0.21-0.49-0.31-0.08-0.05-0.17-0.11-0.25-0.15-0.19-0.11-0.36-0.21-0.54-0.3-0.05-0.03-0.1-0.06-0.15-0.08-0.22-0.11-0.43-0.21-0.63-0.3-0.04-0.02-0.08-0.03-0.12-0.05-0.16-0.07-0.3-0.13-0.44-0.18-0.06-0.02-0.11-0.04-0.16-0.06-0.06-0.02-0.13-0.05-0.18-0.07 0.11-0.12 0.2-0.25 0.31-0.37 0.03-0.04 0.07-0.07 0.1-0.11 0.48-0.52 0.99-1.03 1.54-1.53 0.07-0.07 0.14-0.12 0.2-0.19 2.02-1.79 4.31-3.23 6.78-4.24l0.63-0.26L21.55 5.8c0-0.09 0-0.2 0.01-0.31l0.01-0.12c0.03-0.61 0.14-1.43 0.36-2.11 0.01-0.02 0.01-0.04 0.02-0.06 0.05-0.13 0.1-0.26 0.15-0.38 0.02-0.04 0.04-0.07 0.05-0.11 0.05-0.1 0.11-0.19 0.17-0.27 0.02-0.03 0.04-0.06 0.07-0.09 0.08-0.09 0.16-0.17 0.25-0.22 0.01 0 0.01-0.01 0.02-0.01 0.1-0.06 0.22-0.09 0.34-0.09l0.2-0.02C23.22 2.01 23.3 2 23.41 2c0.02 0 0.03 0 0.05 0 0.08 0 0.16 0.01 0.24 0.02 0.05 0.01 0.1 0.02 0.16 0.03 0.06 0.01 0.13 0.04 0.2 0.06 0.1 0.03 0.21 0.08 0.32 0.14 0.06 0.03 0.12 0.06 0.18 0.1 0.07 0.05 0.14 0.1 0.22 0.16 0.06 0.05 0.13 0.11 0.19 0.18 0.26 0.26 0.52 0.61 0.74 1.09 0.67 1.47 1.21 4.38 0.31 10.1-0.72 4.58 0.09 8.33 2.4 11.15 3.81 4.65 10.27 4.99 10.46 4.99 0.04 0 4.09 0.61 6.14 4.01 1.59 2.64 1.63 6.29 0.12 10.86C45.07 44.89 45.02 44.89 44.96 44.89 44.97 44.89 44.97 44.89 44.96 44.89zM52.57 11.96c-0.31 0.39-0.55 0.88-0.71 1.44-0.33 1.12-0.17 2.37 0.43 3.54 4.18 8.05 3.15 17.96-2.31 25.33 0.1-0.34 0.18-0.66 0.26-0.99 0.06-0.22 0.13-0.45 0.18-0.66 0.08-0.33 0.13-0.64 0.19-0.95 0.04-0.2 0.09-0.41 0.12-0.61 0.05-0.31 0.09-0.6 0.12-0.89 0.02-0.18 0.06-0.37 0.07-0.55 0.03-0.3 0.05-0.58 0.06-0.87 0.01-0.15 0.03-0.31 0.03-0.46 0.01-0.29 0.01-0.56 0-0.83 0-0.13 0-0.26 0-0.39-0.01-0.27-0.03-0.52-0.05-0.77-0.01-0.11-0.01-0.23-0.02-0.34-0.03-0.24-0.06-0.46-0.1-0.69-0.02-0.1-0.03-0.21-0.04-0.31-0.04-0.23-0.09-0.43-0.14-0.64-0.02-0.08-0.03-0.17-0.05-0.25-0.06-0.22-0.12-0.42-0.18-0.62-0.02-0.05-0.03-0.11-0.05-0.17-0.06-0.19-0.13-0.37-0.2-0.54-0.02-0.05-0.04-0.1-0.06-0.15-0.07-0.17-0.14-0.33-0.22-0.48-0.02-0.04-0.04-0.08-0.05-0.12-0.08-0.15-0.15-0.29-0.23-0.42-0.02-0.03-0.03-0.06-0.05-0.08-0.08-0.13-0.15-0.25-0.22-0.36-0.01-0.02-0.02-0.04-0.03-0.06-0.14-0.2-0.26-0.36-0.36-0.48-0.08-0.1-0.16-0.18-0.21-0.23-6.81-9.11-0.42-14.34-0.14-14.56l0.13-0.12c0.26-0.28 0.51-0.53 0.76-0.76 0.01-0.01 0.03-0.03 0.04-0.04 0.25-0.22 0.5-0.42 0.75-0.59l0.32-0.21c0.51-0.29 0.91-0.37 1.2-0.37C52.12 11.74 52.37 11.83 52.57 11.96zM48.26 11.37c-0.02 0.01-0.03 0.03-0.04 0.04-0.3 0.27-0.61 0.56-0.91 0.9-0.55 0.47-3.72 3.41-3.67 8.24 0 0.46 0.04 0.94 0.11 1.43 0.31 2.22 1.31 4.79 3.46 7.65l0.11 0.12c0.03 0.03 3.3 3.34 0.72 12.03l-0.94 3.77c-0.05 0.05-0.1 0.11-0.16 0.18 1.78-5.25 1.71-9.55-0.23-12.75-2.56-4.23-7.36-4.91-7.66-4.95-0.06 0-5.84-0.3-9.09-4.27-1.93-2.36-2.59-5.58-1.97-9.58 0.67-4.26 0.65-7.57-0.02-9.95C35.62 3.27 43.06 5.98 48.26 11.37zM2 17.14c0-0.04 0-0.08 0-0.11 0.01-0.07 0.04-0.17 0.07-0.27 0.27-0.75 1.29-2.19 5.19-2.19 0.12 0 0.25 0 0.37 0.01 0.31 0.01 0.63 0.02 0.97 0.05 0.22 0.02 0.44 0.04 0.67 0.06 0.48 0.05 0.96 0.11 1.48 0.19 0.7 0.17 6.93 1.87 9.13 10.89 0.03 0.22 0.08 0.46 0.15 0.72 0.49 1.82 2.08 4.51 5.69 5.26 0.01 0 0.03 0 0.04 0 0.22 0.04 0.46 0.04 0.7 0.01l0.12-0.01c0.39-0.02 0.84-0.08 1.33-0.13 0.79-0.09 1.69-0.2 2.56-0.2 1.56 0 2.61 0.33 3.3 1.03 0.73 0.74 1.1 1.97 1.1 3.66-0.14 0.74-0.77 4.76 1.61 7.72 1.64 2.04 4.27 3.08 7.83 3.08 0.23 0 0.47 0 0.73-0.01 0.05 0 0.1 0.01 0.14 0.03l0.03 0.02c0.11 0.08 0.14 0.18 0.14 0.24 0 0.07 0 0.19-0.12 0.28-0.53 0.43-1.07 0.83-1.63 1.21-3.89 2.64-8.36 4.02-13.05 4.02-7.7 0-15.27-3.66-20.25-9.79-4.66-5.73-6.4-12.84-4.9-20.04 0.21-1.01-0.24-2.02-1.12-2.51C3.36 19.84 2.21 18.87 2 17.14z" fill="#096a2e" data-fill-palette-color="quaternary"></path></svg></g></svg></g><g id="text-0"><path d="M35.236 103.34v0c-0.46 1.39-1.222 2.534-2.287 3.431-1.071 0.895-2.297 1.481-3.679 1.756-1.38 0.269-2.791 0.166-4.231-0.31v0l-11.84-3.957c-1.39-0.46-2.555-1.201-3.494-2.223-0.937-1.029-1.568-2.221-1.895-3.579-0.32-1.355-0.25-2.728 0.21-4.117v0c0.46-1.39 1.213-2.53 2.262-3.419 1.054-0.887 2.266-1.47 3.635-1.75 1.37-0.28 2.762-0.186 4.178 0.282v0l1.745 0.577c0.107 0.035 0.144 0.103 0.111 0.204v0l-1.407 4.256c-0.033 0.101-0.103 0.133-0.211 0.098v0l-1.745-0.577c-0.83-0.275-1.641-0.239-2.433 0.106-0.783 0.341-1.308 0.918-1.577 1.73v0c-0.302 0.912-0.223 1.709 0.236 2.391 0.463 0.69 1.097 1.169 1.901 1.435v0l11.853 3.919c0.931 0.308 1.78 0.285 2.545-0.069 0.758-0.35 1.267-0.918 1.527-1.704v0c0.268-0.812 0.171-1.594-0.292-2.347-0.467-0.762-1.103-1.276-1.908-1.542v0l-1.755-0.58c-0.101-0.033-0.134-0.1-0.101-0.201v0l1.419-4.294c0.033-0.101 0.1-0.134 0.201-0.101v0l1.756 0.581c1.441 0.476 2.632 1.244 3.572 2.301 0.941 1.058 1.577 2.259 1.907 3.604 0.324 1.342 0.256 2.709-0.203 4.099z" fill="#096a2e" data-fill-palette-color="quaternary"></path><path d="M37.712 94.609v0l-22.077-17.085c-0.082-0.072-0.098-0.156-0.049-0.25v0l2.676-5.14c0.052-0.1 0.131-0.137 0.237-0.111v0l26.562 8.471c0.13 0.038 0.164 0.115 0.102 0.233v0l-2.047 3.932c-0.049 0.094-0.138 0.122-0.268 0.085v0l-2.798-0.953-2.511 4.822 2.39 1.738c0.105 0.085 0.133 0.174 0.085 0.268v0l-2.052 3.94c-0.049 0.094-0.132 0.11-0.249 0.05zM24.98 79.139l9.14 6.787 1.772-3.403-10.728-3.736-1.424-0.473z" fill="#096a2e" data-fill-palette-color="quaternary"></path><path d="M51.267 72.289l-4.256 5.753c-0.063 0.085-0.148 0.088-0.254 0.01v0l-22.04-16.4c-0.085-0.063-0.096-0.137-0.033-0.223v0l4.563-6.169c0.906-1.225 2.012-2.101 3.316-2.628 1.299-0.531 2.636-0.717 4.01-0.557 1.378 0.154 2.637 0.652 3.777 1.495v0c0.922 0.682 1.623 1.522 2.104 2.521 0.482 1.008 0.759 1.983 0.828 2.924v0c1.075-0.161 2.148-0.113 3.22 0.144 1.067 0.262 2.051 0.726 2.951 1.392v0c1.241 0.918 2.156 2.06 2.744 3.426 0.587 1.357 0.808 2.769 0.663 4.236-0.144 1.476-0.675 2.835-1.593 4.076zM31.272 60.529l5.042 3.729 1.803-2.437c0.556-0.751 0.744-1.552 0.564-2.401-0.189-0.848-0.592-1.501-1.209-1.958v0c-0.687-0.508-1.465-0.705-2.334-0.589-0.867 0.125-1.555 0.531-2.063 1.219v0zM40.206 67.136l5.666 4.241 1.471-1.99c0.571-0.772 0.782-1.647 0.631-2.624-0.16-0.976-0.627-1.749-1.399-2.321v0c-0.772-0.571-1.641-0.785-2.605-0.64-0.973 0.146-1.745 0.605-2.316 1.377v0z" fill="#096a2e" data-fill-palette-color="quaternary"></path><path d="M63.772 58.322l-5.163 4.955c-0.076 0.073-0.161 0.062-0.252-0.034v0l-18.965-19.875c-0.073-0.076-0.072-0.151 0.004-0.224v0l5.536-5.314c1.1-1.055 2.337-1.733 3.711-2.032 1.37-0.305 2.719-0.263 4.047 0.125 1.332 0.384 2.49 1.087 3.471 2.11v0c0.794 0.827 1.344 1.773 1.65 2.838 0.306 1.075 0.414 2.082 0.325 3.023v0c1.087 0.022 2.137 0.25 3.149 0.683 1.008 0.438 1.9 1.061 2.675 1.869v0c1.069 1.114 1.779 2.394 2.128 3.839 0.35 1.437 0.33 2.865-0.059 4.287-0.39 1.431-1.142 2.681-2.257 3.75zM46.042 43.364l4.342 4.525 2.188-2.099c0.674-0.647 0.994-1.404 0.96-2.272-0.043-0.868-0.331-1.579-0.863-2.134v0c-0.592-0.617-1.326-0.941-2.201-0.973-0.876-0.023-1.622 0.262-2.239 0.854v0zM53.736 51.381l4.872 5.133 1.785-1.713c0.693-0.665 1.048-1.492 1.063-2.481 0.006-0.989-0.323-1.83-0.988-2.523v0c-0.665-0.693-1.485-1.05-2.46-1.07-0.984-0.02-1.822 0.302-2.515 0.968v0z" fill="#096a2e" data-fill-palette-color="quaternary"></path><path d="M70.595 51.806v0l-11.467-25.452c-0.038-0.102-0.014-0.184 0.074-0.243v0l4.776-3.281c0.093-0.064 0.18-0.059 0.262 0.013v0l19.471 19.954c0.097 0.094 0.091 0.179-0.019 0.254v0l-3.653 2.509c-0.087 0.06-0.18 0.043-0.277-0.051v0l-2.023-2.155-4.481 3.078 1.294 2.656c0.053 0.124 0.036 0.216-0.052 0.277v0l-3.662 2.515c-0.087 0.06-0.169 0.035-0.243-0.074zM66.62 32.169l4.881 10.284 3.163-2.172-7.717-8.337-1.035-1.086z" fill="#096a2e" data-fill-palette-color="quaternary"></path><path d="M92.553 39.125v0c-1.293 0.629-2.623 0.879-3.991 0.749-1.371-0.136-2.64-0.594-3.808-1.375-1.162-0.783-2.069-1.845-2.721-3.185v0l-5.55-11.404c-0.629-1.293-0.893-2.638-0.792-4.036 0.107-1.401 0.536-2.685 1.286-3.853 0.753-1.162 1.765-2.052 3.034-2.67v0c1.317-0.641 2.662-0.905 4.036-0.793 1.377 0.119 2.64 0.565 3.79 1.339 1.15 0.774 2.052 1.831 2.705 3.172v0l0.804 1.653c0.046 0.095 0.01 0.172-0.109 0.23v0l-4.031 1.962c-0.095 0.046-0.166 0.022-0.212-0.074v0l-0.661-1.358c-0.444-0.912-1.071-1.542-1.882-1.892-0.805-0.352-1.592-0.342-2.361 0.033v0c-0.697 0.339-1.173 0.928-1.428 1.767-0.261 0.842-0.206 1.644 0.165 2.406v0l5.549 11.404c0.383 0.786 0.977 1.334 1.783 1.642 0.797 0.305 1.556 0.282 2.276-0.069v0c0.769-0.374 1.276-0.96 1.522-1.757 0.249-0.806 0.176-1.615-0.219-2.425v0l-0.861-1.77-2.52 1.227c-0.119 0.058-0.208 0.027-0.266-0.092v0l-1.957-4.022c-0.058-0.119-0.027-0.208 0.092-0.266v0l6.73-3.274c0.095-0.046 0.172-0.01 0.23 0.109v0l2.905 5.97c0.652 1.341 0.925 2.711 0.818 4.112-0.107 1.401-0.53 2.682-1.268 3.844-0.741 1.157-1.771 2.055-3.088 2.696z" fill="#096a2e" data-fill-palette-color="quaternary"></path><path d="M115.063 30.52l-12.343 3.787c-0.101 0.031-0.171-0.017-0.21-0.143v0l-8.021-26.275c-0.031-0.101 0.004-0.168 0.105-0.198v0l12.267-3.765c0.108-0.033 0.181 0.014 0.22 0.141v0l1.315 4.285c0.031 0.101-0.007 0.169-0.115 0.202v0l-7.83 2.402 1.829 5.958 7.829-2.403c0.108-0.033 0.177 0.001 0.208 0.103v0l1.365 4.311c0.031 0.101-0.007 0.169-0.115 0.202v0l-7.867 2.414 2.052 6.69 7.868-2.415c0.108-0.033 0.181 0.014 0.22 0.141v0l1.338 4.361c0.031 0.101-0.007 0.169-0.115 0.202z" fill="#096a2e" data-fill-palette-color="quaternary"></path><path d="M133.905 28.623v0c-1.461 0.095-2.807-0.183-4.038-0.834-1.231-0.657-2.234-1.575-3.008-2.752-0.767-1.179-1.2-2.525-1.298-4.039v0l-0.77-12.46c-0.095-1.461 0.155-2.819 0.751-4.073 0.602-1.254 1.472-2.287 2.608-3.098 1.136-0.804 2.435-1.254 3.896-1.349v0c1.461-0.095 2.8 0.177 4.017 0.815 1.217 0.645 2.212 1.549 2.985 2.714 0.773 1.165 1.208 2.491 1.305 3.979v0l0.119 1.835c0.007 0.112-0.042 0.172-0.148 0.179v0l-4.473 0.291c-0.106 0.007-0.162-0.046-0.17-0.158v0l-0.119-1.835c-0.057-0.873-0.394-1.611-1.01-2.216-0.61-0.598-1.341-0.869-2.195-0.813v0c-0.959 0.062-1.668 0.434-2.128 1.114-0.467 0.688-0.672 1.455-0.618 2.301v0l0.81 12.458c0.064 0.979 0.403 1.757 1.018 2.334 0.608 0.571 1.326 0.83 2.152 0.776v0c0.853-0.055 1.542-0.439 2.067-1.15 0.531-0.718 0.769-1.501 0.714-2.347v0l-0.12-1.845c-0.007-0.106 0.043-0.162 0.148-0.169v0l4.513-0.293c0.106-0.007 0.162 0.043 0.169 0.148v0l0.12 1.845c0.098 1.514-0.166 2.906-0.794 4.175-0.628 1.269-1.503 2.309-2.626 3.119-1.123 0.803-2.415 1.253-3.877 1.347z" fill="#096a2e" data-fill-palette-color="quaternary"></path><path d="M152.234 29.138v0c-1.431-0.144-2.699-0.639-3.807-1.483-1.106-0.851-1.958-1.916-2.554-3.195-0.59-1.278-0.812-2.646-0.665-4.103v0l1.313-12.614c0.147-1.457 0.63-2.747 1.449-3.869 0.826-1.122 1.872-1.982 3.137-2.581 1.265-0.592 2.6-0.817 4.004-0.675v0c1.431 0.144 2.693 0.631 3.789 1.461 1.094 0.836 1.934 1.887 2.519 3.152 0.585 1.264 0.804 2.625 0.657 4.082v0l-1.234 12.622c-0.147 1.457-0.634 2.753-1.461 3.888-0.827 1.135-1.868 2.009-3.122 2.622-1.253 0.606-2.595 0.837-4.025 0.693zM152.719 24.322v0c0.798 0.081 1.526-0.172 2.185-0.759 0.666-0.592 1.04-1.297 1.122-2.114v0l1.234-12.622c0.088-0.87-0.118-1.64-0.616-2.31-0.493-0.662-1.164-1.037-2.015-1.122v0c-0.824-0.083-1.556 0.143-2.196 0.677-0.647 0.541-1.016 1.259-1.106 2.156v0l-1.274 12.618c-0.088 0.87 0.13 1.648 0.654 2.334 0.518 0.678 1.188 1.059 2.012 1.142z" fill="#096a2e" data-fill-palette-color="quaternary"></path><path d="M167.666 31.619l-4.35-1.236c-0.102-0.029-0.135-0.107-0.099-0.235v0l7.588-26.403c0.029-0.102 0.094-0.138 0.197-0.11v0l4.694 1.335c0.102 0.029 0.177 0.105 0.224 0.229v0l2.056 6.071 4.942-4.082c0.105-0.08 0.209-0.106 0.312-0.077v0l4.732 1.346c0.102 0.029 0.138 0.094 0.109 0.196v0l-7.435 26.447c-0.036 0.127-0.105 0.177-0.207 0.147v0l-4.34-1.233c-0.102-0.029-0.135-0.107-0.099-0.235v0l5.538-19.629-5.707 4.701-2.333-6.986-5.615 19.607c-0.036 0.127-0.105 0.177-0.207 0.147z" fill="#096a2e" data-fill-palette-color="quaternary"></path><path d="M187.838 38.9l-4.016-1.992c-0.119-0.059-0.149-0.148-0.09-0.267v0l12.281-24.574c0.047-0.095 0.118-0.119 0.213-0.072v0l6.874 3.41c2.202 1.093 3.61 2.623 4.223 4.592 0.611 1.975 0.348 4.108-0.789 6.399v0c-0.839 1.692-1.903 2.994-3.192 3.908-1.28 0.911-2.622 1.432-4.027 1.564-1.407 0.138-2.746-0.109-4.016-0.739v0l-2.716-1.347-4.479 9.028c-0.059 0.119-0.148 0.149-0.266 0.09zM198.25 18.358l-3.516 7.088 2.716 1.347c0.766 0.38 1.61 0.348 2.533-0.097 0.92-0.453 1.67-1.265 2.251-2.434v0c0.462-0.932 0.593-1.821 0.391-2.668-0.21-0.844-0.757-1.485-1.641-1.924v0z" fill="#096a2e" data-fill-palette-color="quaternary"></path><path d="M197.764 43.747v0l19.876-19.602c0.083-0.071 0.167-0.077 0.254-0.015v0l4.737 3.337c0.092 0.065 0.118 0.148 0.079 0.25v0l-11.938 25.195c-0.055 0.124-0.136 0.147-0.244 0.071v0l-3.624-2.553c-0.087-0.061-0.103-0.153-0.048-0.277v0l1.317-2.647-4.445-3.131-2.04 2.137c-0.098 0.093-0.19 0.109-0.277 0.048v0l-3.632-2.559c-0.087-0.061-0.092-0.146-0.015-0.254zM214.793 33.191l-7.945 8.154 3.136 2.209 5.134-10.134 0.658-1.348z" fill="#096a2e" data-fill-palette-color="quaternary"></path><path d="M215.991 58.11l-2.875-2.775c-0.153-0.147-0.164-0.288-0.035-0.422v0l18.885-19.621c0.147-0.153 0.297-0.155 0.45-0.007v0l2.588 2.498-6.078 16.029 10.577-11.244c0.147-0.153 0.307-0.146 0.478 0.02v0l2.846 2.747c0.119 0.115 0.105 0.249-0.042 0.402v0l-18.913 19.649c-0.11 0.114-0.216 0.123-0.316 0.027v0l-2.531-2.444 5.239-15.388-9.788 10.555c-0.147 0.153-0.309 0.144-0.485-0.026z" fill="#096a2e" data-fill-palette-color="quaternary"></path><path d="M229.301 72.639l-2.825-3.532c-0.083-0.103-0.072-0.197 0.031-0.279v0l21.479-17.129c0.083-0.066 0.157-0.058 0.223 0.025v0l2.8 3.501c0.066 0.083 0.058 0.157-0.025 0.223v0l-21.428 17.191c-0.103 0.083-0.188 0.083-0.255 0z" fill="#096a2e" data-fill-palette-color="quaternary"></path><path d="M235.284 82.871v0c-0.744-1.231-1.11-2.542-1.1-3.934 0.016-1.396 0.356-2.716 1.02-3.961 0.668-1.24 1.628-2.238 2.882-2.996v0l10.874-6.525c1.253-0.757 2.575-1.146 3.965-1.165 1.393-0.014 2.709 0.306 3.947 0.959 1.233 0.656 2.214 1.588 2.944 2.797v0c0.744 1.231 1.113 2.533 1.107 3.906-0.012 1.377-0.347 2.68-1.007 3.907-0.66 1.227-1.616 2.219-2.869 2.977v0l-10.834 6.593c-1.253 0.757-2.582 1.146-3.987 1.167-1.404 0.02-2.728-0.287-3.971-0.922-1.237-0.638-2.228-1.572-2.971-2.803zM239.426 80.368v0c0.415 0.686 1.054 1.117 1.919 1.291 0.873 0.177 1.662 0.053 2.365-0.372v0l10.833-6.594c0.749-0.452 1.241-1.079 1.477-1.88 0.234-0.792 0.13-1.553-0.312-2.285v0c-0.428-0.709-1.049-1.159-1.861-1.349-0.821-0.193-1.617-0.056-2.388 0.41v0l-10.854 6.56c-0.749 0.452-1.24 1.094-1.474 1.924-0.231 0.821-0.133 1.586 0.296 2.295z" fill="#096a2e" data-fill-palette-color="quaternary"></path><path d="M242.581 96.528l-1.48-3.712c-0.079-0.197-0.032-0.33 0.14-0.398v0l25.281-10.126c0.197-0.079 0.335-0.019 0.413 0.177v0l1.333 3.342-12.128 12.114 14.263-5.903c0.197-0.079 0.34-0.007 0.428 0.215v0l1.465 3.674c0.061 0.154-0.006 0.27-0.203 0.348v0l-25.317 10.141c-0.148 0.059-0.247 0.024-0.299-0.105v0l-1.304-3.268 11.101-11.875-13.261 5.599c-0.197 0.079-0.341 0.004-0.432-0.223z" fill="#096a2e" data-fill-palette-color="quaternary"></path><path d="M11.499 139.913c0-1.789 1.45-3.239 3.24-3.239 1.789 0 3.239 1.45 3.239 3.239 0 1.789-1.45 3.239-3.239 3.239-1.789 0-3.239-1.45-3.24-3.239z" fill="#096a2e" data-fill-palette-color="quaternary"></path><path d="M261.97 139.913c0-1.789 1.45-3.239 3.239-3.239 1.789 0 3.239 1.45 3.239 3.239 0 1.789-1.45 3.239-3.239 3.239-1.789 0-3.239-1.45-3.239-3.239z" fill="#096a2e" data-fill-palette-color="quaternary"></path></g><g id="text-1"><path d="M7.898 185.688v0c-0.467-1.409-0.536-2.803-0.205-4.184 0.325-1.378 0.968-2.597 1.929-3.656 0.959-1.065 2.171-1.841 3.637-2.327v0l12.04-3.952c1.409-0.467 2.808-0.565 4.196-0.293 1.387 0.266 2.625 0.853 3.716 1.762 1.084 0.911 1.86 2.071 2.327 3.48v0c0.469 1.415 0.546 2.803 0.23 4.164-0.323 1.364-0.958 2.573-1.907 3.628-0.949 1.055-2.14 1.82-3.573 2.296v0l-1.774 0.588c-0.107 0.035-0.177 0.003-0.21-0.098v0l-1.434-4.32c-0.033-0.101 0.003-0.169 0.111-0.204v0l1.773-0.589c0.843-0.28 1.484-0.799 1.923-1.559 0.433-0.758 0.512-1.549 0.239-2.373v0c-0.307-0.924-0.858-1.523-1.654-1.797-0.792-0.282-1.596-0.287-2.414-0.016v0l-12.028 3.991c-0.95 0.315-1.628 0.847-2.035 1.597-0.408 0.75-0.48 1.521-0.217 2.313v0c0.273 0.824 0.829 1.404 1.666 1.74 0.838 0.336 1.668 0.368 2.492 0.095v0l1.774-0.589c0.101-0.033 0.168 0 0.201 0.101v0l1.446 4.358c0.033 0.101 0 0.168-0.101 0.201v0l-1.774 0.589c-1.465 0.486-2.902 0.586-4.309 0.299-1.408-0.287-2.651-0.88-3.732-1.778-1.086-0.896-1.864-2.052-2.333-3.467z" fill="#096a2e" data-fill-palette-color="quaternary"></path><path d="M13.194 197.998v0l27.069-8.452c0.106-0.026 0.185 0.012 0.238 0.111v0l2.722 5.217c0.049 0.094 0.034 0.18-0.045 0.259v0l-22.508 17.192c-0.105 0.085-0.19 0.066-0.255-0.057v0l-2.083-3.992c-0.049-0.094-0.022-0.186 0.08-0.277v0l2.432-1.763-2.556-4.899-2.841 0.978c-0.13 0.038-0.221 0.007-0.273-0.093v0l-2.083-3.991c-0.049-0.094-0.015-0.172 0.103-0.233zM33.473 196.385l-10.957 3.666 1.802 3.454 9.344-6.759 1.22-0.906z" fill="#096a2e" data-fill-palette-color="quaternary"></path><path d="M28.8 224.314l-4.325-5.838c-0.067-0.091-0.047-0.175 0.059-0.254v0l22.477-16.543c0.085-0.063 0.159-0.052 0.223 0.033v0l4.645 6.269c0.915 1.235 1.438 2.563 1.567 3.985 0.124 1.425-0.094 2.783-0.656 4.073-0.558 1.295-1.411 2.369-2.561 3.221v0c-0.937 0.694-1.965 1.126-3.085 1.296-1.119 0.17-2.146 0.147-3.081-0.067v0c-0.168 1.098-0.535 2.128-1.099 3.09-0.569 0.957-1.311 1.775-2.227 2.454v0c-1.262 0.935-2.639 1.485-4.132 1.652-1.497 0.161-2.94-0.044-4.328-0.616-1.383-0.575-2.542-1.494-3.477-2.755zM46.157 208.373l-5.126 3.799 1.84 2.483c0.564 0.761 1.284 1.176 2.159 1.245 0.88 0.074 1.636-0.124 2.27-0.593v0c0.697-0.517 1.116-1.215 1.257-2.094 0.14-0.879-0.046-1.665-0.559-2.357v0zM37.086 215.095l-5.798 4.246 1.497 2.02c0.58 0.783 1.368 1.246 2.366 1.39 0.993 0.138 1.881-0.082 2.663-0.663v0c0.783-0.58 1.25-1.363 1.401-2.349 0.142-0.988-0.077-1.873-0.656-2.656v0z" fill="#096a2e" data-fill-palette-color="quaternary"></path><path d="M44.457 241.83l-5.246-5.026c-0.081-0.078-0.076-0.165 0.015-0.261v0l19.371-20.091c0.073-0.077 0.148-0.078 0.225-0.005v0l5.634 5.397c1.11 1.063 1.849 2.285 2.216 3.664 0.362 1.384 0.376 2.759 0.039 4.126-0.331 1.371-0.992 2.573-1.982 3.607v0c-0.807 0.842-1.748 1.441-2.823 1.796-1.075 0.356-2.091 0.506-3.048 0.452v0c0.019 1.11-0.169 2.187-0.563 3.232-0.399 1.04-0.993 1.971-1.782 2.794v0c-1.086 1.134-2.351 1.909-3.795 2.324-1.449 0.411-2.905 0.451-4.37 0.122-1.46-0.334-2.757-1.045-3.891-2.131zM58.883 223.194l-4.414 4.608 2.232 2.138c0.684 0.655 1.464 0.943 2.338 0.864 0.879-0.075 1.592-0.397 2.137-0.967v0c0.6-0.627 0.896-1.385 0.886-2.275-0.01-0.89-0.326-1.633-0.947-2.23v0zM51.072 231.347l-5 5.162 1.816 1.739c0.703 0.674 1.559 0.998 2.566 0.972 1.002-0.031 1.84-0.398 2.514-1.102v0c0.674-0.703 1.002-1.554 0.985-2.551-0.026-0.998-0.391-1.833-1.094-2.508v0z" fill="#096a2e" data-fill-palette-color="quaternary"></path><path d="M54.944 250.813v0l19.93-20.174c0.082-0.072 0.169-0.077 0.262-0.013v0l4.853 3.327c0.087 0.06 0.115 0.143 0.082 0.249v0l-11.798 25.75c-0.053 0.124-0.137 0.147-0.252 0.068v0l-3.713-2.546c-0.087-0.06-0.107-0.154-0.06-0.282v0l1.32-2.698-4.558-3.125-2.049 2.198c-0.097 0.094-0.192 0.11-0.285 0.046v0l-3.713-2.546c-0.087-0.06-0.094-0.145-0.019-0.254zM72.091 239.866l-7.953 8.382 3.214 2.203 5.075-10.355 0.652-1.373z" fill="#096a2e" data-fill-palette-color="quaternary"></path><path d="M80.026 266.683v0c-1.311-0.637-2.344-1.544-3.098-2.72-0.751-1.183-1.18-2.485-1.285-3.906-0.111-1.424 0.163-2.816 0.824-4.175v0l5.629-11.586c0.637-1.311 1.55-2.363 2.737-3.156 1.182-0.796 2.476-1.261 3.883-1.396 1.403-0.129 2.748 0.12 4.036 0.745v0c1.341 0.651 2.397 1.563 3.169 2.734 0.769 1.177 1.203 2.467 1.302 3.87 0.102 1.398-0.179 2.779-0.841 4.143v0l-0.817 1.681c-0.049 0.101-0.133 0.123-0.253 0.065v0l-4.094-1.989c-0.095-0.046-0.118-0.12-0.069-0.221v0l0.673-1.386c0.449-0.924 0.56-1.82 0.334-2.689-0.229-0.863-0.734-1.484-1.515-1.863v0c-0.703-0.342-1.471-0.354-2.303-0.036-0.832 0.318-1.438 0.867-1.817 1.648v0l-5.629 11.586c-0.388 0.799-0.453 1.614-0.194 2.447 0.258 0.833 0.751 1.426 1.478 1.779v0c0.781 0.379 1.569 0.416 2.366 0.111 0.797-0.305 1.395-0.869 1.795-1.692v0l0.872-1.797-2.556-1.242c-0.125-0.061-0.159-0.151-0.101-0.27v0l1.989-4.095c0.058-0.119 0.149-0.148 0.275-0.087v0l6.83 3.318c0.095 0.046 0.114 0.129 0.056 0.248v0l-2.949 6.071c-0.66 1.359-1.581 2.436-2.764 3.232-1.182 0.796-2.47 1.264-3.864 1.404-1.391 0.134-2.757-0.124-4.099-0.776z" fill="#096a2e" data-fill-palette-color="quaternary"></path><path d="M107.031 276.171l-12.544-3.843c-0.108-0.033-0.142-0.113-0.104-0.24v0l8.222-26.67c0.031-0.101 0.097-0.137 0.199-0.106v0l12.468 3.82c0.101 0.031 0.133 0.11 0.094 0.236v0l-1.333 4.353c-0.031 0.101-0.097 0.137-0.199 0.105v0l-7.964-2.439-1.857 6.063 7.964 2.439c0.101 0.031 0.137 0.097 0.105 0.199v0l-1.307 4.402c-0.031 0.101-0.097 0.137-0.198 0.106v0l-8.002-2.452-2.082 6.795 8.002 2.451c0.101 0.031 0.132 0.113 0.091 0.247v0l-1.357 4.428c-0.031 0.101-0.097 0.137-0.198 0.106z" fill="#096a2e" data-fill-palette-color="quaternary"></path><path d="M131.908 279.981v0c-1.481-0.098-2.799-0.56-3.952-1.386-1.154-0.82-2.041-1.875-2.66-3.164-0.625-1.29-0.887-2.705-0.786-4.245v0l0.875-12.643c0.098-1.481 0.534-2.813 1.309-3.997 0.769-1.184 1.78-2.11 3.033-2.778 1.252-0.661 2.619-0.943 4.099-0.845v0c1.488 0.098 2.802 0.55 3.945 1.356 1.142 0.812 2.022 1.857 2.642 3.133 0.62 1.276 0.88 2.668 0.78 4.175v0l-0.123 1.864c-0.007 0.112-0.064 0.165-0.17 0.158v0l-4.542-0.299c-0.106-0.007-0.155-0.067-0.147-0.179v0l0.123-1.865c0.058-0.886-0.182-1.675-0.721-2.368-0.539-0.686-1.242-1.058-2.107-1.116v0c-0.972-0.064-1.734 0.221-2.288 0.855-0.559 0.627-0.867 1.37-0.924 2.23v0l-0.835 12.645c-0.066 0.998 0.172 1.827 0.713 2.488 0.541 0.66 1.228 1.017 2.06 1.072v0c0.866 0.057 1.613-0.239 2.24-0.888 0.627-0.649 0.969-1.407 1.027-2.273v0l0.123-1.865c0.007-0.106 0.063-0.155 0.169-0.148v0l4.582 0.303c0.106 0.007 0.155 0.063 0.148 0.169v0l-0.123 1.864c-0.102 1.541-0.551 2.909-1.346 4.105-0.796 1.196-1.814 2.125-3.053 2.787-1.239 0.669-2.603 0.954-4.091 0.855z" fill="#096a2e" data-fill-palette-color="quaternary"></path><path d="M155.007 279.401v0c-1.451 0.145-2.813-0.095-4.088-0.72-1.274-0.619-2.335-1.505-3.182-2.659-0.854-1.153-1.355-2.468-1.503-3.945v0l-1.241-12.821c-0.148-1.483 0.077-2.864 0.675-4.143 0.591-1.284 1.456-2.353 2.597-3.206 1.141-0.846 2.423-1.341 3.847-1.483v0c1.457-0.146 2.815 0.085 4.074 0.692 1.26 0.613 2.306 1.491 3.14 2.633 0.833 1.135 1.323 2.445 1.471 3.928v0l1.32 12.813c0.148 1.477-0.073 2.864-0.663 4.162-0.59 1.297-1.447 2.375-2.573 3.234-1.126 0.865-2.417 1.37-3.874 1.515zM154.518 274.506v0c0.811-0.081 1.487-0.481 2.027-1.202 0.541-0.72 0.77-1.495 0.687-2.326v0l-1.32-12.813c-0.089-0.89-0.448-1.617-1.077-2.18-0.629-0.563-1.375-0.802-2.239-0.715v0c-0.831 0.083-1.513 0.457-2.045 1.123-0.533 0.666-0.753 1.457-0.662 2.374v0l1.28 12.817c0.088 0.883 0.461 1.612 1.118 2.186 0.657 0.574 1.4 0.819 2.231 0.736z" fill="#096a2e" data-fill-palette-color="quaternary"></path><path d="M175.183 275.216l-4.418 1.252c-0.108 0.031-0.181-0.018-0.217-0.145v0l-7.524-26.876c-0.029-0.102 0.008-0.167 0.11-0.196v0l4.762-1.35c0.108-0.031 0.215-0.006 0.321 0.075v0l5.02 4.155 2.094-6.172c0.048-0.124 0.122-0.2 0.225-0.229v0l4.809-1.363c0.102-0.029 0.167 0.008 0.197 0.11v0l7.686 26.83c0.036 0.128 0.003 0.206-0.099 0.234v0l-4.417 1.252c-0.102 0.029-0.171-0.02-0.208-0.148v0l-5.686-19.917-2.419 7.101-5.747-4.787 5.609 19.94c0.036 0.128 0.003 0.206-0.098 0.234z" fill="#096a2e" data-fill-palette-color="quaternary"></path><path d="M200.214 266.087l-4.079 2.021c-0.125 0.062-0.216 0.033-0.276-0.086v0l-12.311-25.047c-0.047-0.095-0.023-0.166 0.072-0.213v0l6.991-3.464c2.226-1.103 4.327-1.297 6.3-0.582 1.974 0.715 3.538 2.237 4.691 4.564v0c0.853 1.722 1.252 3.384 1.196 4.987-0.053 1.594-0.458 3-1.216 4.219-0.754 1.224-1.772 2.154-3.054 2.789v0l-2.77 1.372 4.545 9.173c0.059 0.119 0.029 0.208-0.089 0.267zM190.003 245.034l3.571 7.205 2.769-1.372c0.772-0.382 1.26-1.083 1.466-2.102 0.202-1.025 0.009-2.131-0.58-3.318v0c-0.468-0.944-1.106-1.597-1.913-1.958-0.811-0.353-1.664-0.307-2.56 0.137v0z" fill="#096a2e" data-fill-palette-color="quaternary"></path><path d="M213.51 258.793v0l-11.945-25.72c-0.039-0.102-0.013-0.185 0.079-0.251v0l4.813-3.385c0.087-0.061 0.174-0.058 0.262 0.01v0l20.009 20.047c0.098 0.093 0.09 0.18-0.024 0.26v0l-3.683 2.591c-0.087 0.061-0.182 0.047-0.285-0.043v0l-2.067-2.179-4.52 3.18 1.344 2.688c0.055 0.124 0.036 0.218-0.056 0.282v0l-3.683 2.591c-0.087 0.061-0.168 0.037-0.244-0.071zM209.239 238.903l5.077 10.378 3.187-2.241-7.931-8.372-1.058-1.09z" fill="#096a2e" data-fill-palette-color="quaternary"></path><path d="M235.367 241.984l-2.927 2.821c-0.153 0.147-0.296 0.152-0.429 0.014v0l-19.223-19.876c-0.152-0.157-0.149-0.312 0.008-0.464v0l2.634-2.538 16.042 6.764-11.019-11.148c-0.152-0.157-0.139-0.321 0.037-0.492v0l2.891-2.786c0.119-0.115 0.255-0.094 0.407 0.064v0l19.243 19.91c0.115 0.119 0.125 0.225 0.029 0.317v0l-2.576 2.483-15.433-5.887 10.353 10.327c0.152 0.157 0.139 0.321-0.037 0.491z" fill="#096a2e" data-fill-palette-color="quaternary"></path><path d="M251.124 224.815l-2.873 3.582c-0.087 0.109-0.182 0.121-0.286 0.038v0l-21.739-17.501c-0.083-0.066-0.091-0.141-0.025-0.224v0l2.848-3.551c0.066-0.083 0.141-0.091 0.224-0.024v0l21.795 17.432c0.103 0.083 0.122 0.166 0.056 0.248z" fill="#096a2e" data-fill-palette-color="quaternary"></path><path d="M259.842 212.092v0c-0.756 1.246-1.767 2.19-3.033 2.833-1.26 0.646-2.606 0.961-4.038 0.944-1.435-0.011-2.787-0.401-4.056-1.172v0l-10.991-6.717c-1.274-0.774-2.243-1.784-2.904-3.03-0.671-1.244-1.004-2.578-1.001-4.002 0.01-1.42 0.386-2.742 1.128-3.966v0c0.76-1.252 1.761-2.198 3.003-2.84 1.248-0.638 2.578-0.947 3.992-0.926 1.408 0.017 2.749 0.413 4.023 1.187v0l11.032 6.649c1.269 0.77 2.244 1.781 2.927 3.032 0.682 1.251 1.028 2.585 1.036 4.001 0.014 1.419-0.358 2.755-1.118 4.007zM255.636 209.539v0c0.423-0.697 0.509-1.478 0.259-2.343-0.25-0.865-0.732-1.514-1.445-1.947v0l-11.032-6.649c-0.765-0.464-1.561-0.614-2.39-0.45-0.828 0.164-1.467 0.617-1.917 1.359v0c-0.433 0.714-0.544 1.484-0.333 2.309 0.212 0.826 0.711 1.478 1.499 1.956v0l11.011 6.684c0.759 0.461 1.565 0.601 2.419 0.421 0.853-0.18 1.496-0.626 1.929-1.34z" fill="#096a2e" data-fill-palette-color="quaternary"></path><path d="M268.517 193.952l-1.513 3.773c-0.079 0.197-0.208 0.259-0.386 0.188v0l-25.682-10.247c-0.203-0.081-0.264-0.224-0.182-0.426v0l1.361-3.395 17.405-0.408-14.621-5.651c-0.203-0.081-0.259-0.236-0.168-0.463v0l1.495-3.727c0.062-0.154 0.194-0.19 0.397-0.108v0l25.715 10.271c0.154 0.062 0.206 0.154 0.157 0.277v0l-1.332 3.321-16.49 0.957 13.677 5.175c0.203 0.081 0.259 0.236 0.167 0.463z" fill="#096a2e" data-fill-palette-color="quaternary"></path></g></svg></g></svg></g></svg></g></svg></g></svg></g></svg></g><defs></defs></svg><rect width="512" height="320" fill="none" stroke="none" visibility="hidden"></rect></g></svg></g></svg>